<?xml version="1.0" encoding="UTF-8"?>
<svg version="1.1" xmlns="http://www.w3.org/2000/svg" width="512" height="512">
<path d="M0 0 C12.3143125 10.24489484 17.38157384 23.67082263 19.6875 39.25 C20.68542527 57.6949855 20.70284705 77.65206174 15.50390625 95.546875 C13.41506043 102.64640119 13.41506043 102.64640119 15.2578125 109.55859375 C17.23146751 112.34512701 19.28467763 114.9820807 21.44189453 117.62304688 C29.03427162 127.53986399 34.75412444 143.34547313 34.00390625 156.05078125 C32.1822491 168.71242293 27.86775196 178.0313657 18.12890625 186.4609375 C17.65324219 187.05132812 17.17757813 187.64171875 16.6875 188.25 C17.35200554 192.53893071 19.7176251 195.99926832 21.875 199.6875 C28.42322968 211.15047843 33.51702962 222.3730126 36.6875 235.25 C36.88214844 236.02214844 37.07679688 236.79429687 37.27734375 237.58984375 C39.68921336 253.23254097 37.66617198 269.01419907 28.6875 282.25 C26.49115936 284.91916397 24.22054384 287.4591926 21.8359375 289.9609375 C21.12695312 290.71632813 20.41796875 291.47171875 19.6875 292.25 C18.883125 292.9925 18.07875 293.735 17.25 294.5 C15.46990642 297.00405892 15.46990642 297.00405892 15.90478516 299.15478516 C16.58865604 301.45593961 17.41649075 303.64795579 18.3125 305.875 C18.90576854 307.50219062 19.49434891 309.13109852 20.078125 310.76171875 C20.36236328 311.54208496 20.64660156 312.32245117 20.93945312 313.12646484 C26.69735684 329.47184555 24.91418421 348.9665989 18.21484375 364.7109375 C11.40953302 378.25720615 -0.38530824 393.11791559 -15.3125 398.25 C-14.97476562 399.20777344 -14.63703125 400.16554688 -14.2890625 401.15234375 C-6.17105834 425.04238363 -5.60683898 452.39156428 -15.8828125 475.83203125 C-19.693276 483.30771637 -24.15341445 491.02222989 -32.3125 494.25 C-37.16056014 494.80633477 -41.75003312 494.86847647 -46.3125 493.0625 C-51.32218423 488.52247367 -51.96420938 483.5731282 -52.75 477.1875 C-52.99763574 475.39271948 -53.24905025 473.59845699 -53.50390625 471.8046875 C-53.69944092 470.42748535 -53.69944092 470.42748535 -53.89892578 469.02246094 C-55.74051474 456.67707474 -58.03423595 444.63993822 -63.3125 433.25 C-63.75335938 432.29867188 -64.19421875 431.34734375 -64.6484375 430.3671875 C-70.40542379 418.94863457 -78.7888882 411.29196827 -89.3125 404.25 C-88.99023438 405.45011719 -88.66796875 406.65023438 -88.3359375 407.88671875 C-83.21538954 431.10137999 -87.04189903 459.84111827 -99.1953125 480.44140625 C-102.92444988 485.93274384 -106.81721903 491.11838717 -113.3125 493.25 C-118.0862072 493.99943424 -122.80296675 494.36480244 -127.30859375 492.36328125 C-132.00749925 488.83617263 -133.8502868 483.83572366 -134.8449707 478.27124023 C-135.33268099 474.68476953 -135.76603569 471.09484267 -136.1875 467.5 C-139.65609985 440.56507196 -146.22049047 414.18871428 -168.5234375 396.49609375 C-170.43409703 395.05136698 -172.35861464 393.63548235 -174.3125 392.25 C-174.0959375 393.04535156 -173.879375 393.84070313 -173.65625 394.66015625 C-168.86195373 415.41324426 -169.5427719 438.78334742 -175.3125 459.25 C-175.49441895 459.92369629 -175.67633789 460.59739258 -175.86376953 461.29150391 C-180.23370787 477.11153984 -188.29404688 494.55829745 -202.76953125 503.5546875 C-206.36293091 505.27413122 -208.49973909 505.7646102 -212.4375 505.6875 C-213.43007812 505.68621094 -214.42265625 505.68492187 -215.4453125 505.68359375 C-220.20765134 504.96340354 -222.66743429 503.09216912 -225.5625 499.3125 C-228.29446388 494.53156321 -228.42174637 490.9859068 -228.33984375 485.4921875 C-228.32518329 484.13957324 -228.3111276 482.78695231 -228.29760742 481.43432617 C-228.28925873 480.73036713 -228.28091003 480.02640808 -228.27230835 479.30111694 C-227.94945843 447.80801288 -231.31848898 419.33129863 -253.8984375 395.5234375 C-257.53382423 391.82408502 -261.08185012 388.2677342 -265.3125 385.25 C-265.53164063 386.508125 -265.75078125 387.76625 -265.9765625 389.0625 C-271.29115683 418.2755509 -284.54376409 444.13220134 -304.3125 466.25 C-305.54217723 467.68706327 -306.77141783 469.12450042 -308 470.5625 C-309.09819501 471.79700493 -310.20223696 473.02633717 -311.3125 474.25 C-311.86550781 474.86875 -312.41851562 475.4875 -312.98828125 476.125 C-322.99854696 486.7568882 -338.4671733 499.36989655 -353.51953125 500.48828125 C-365.758798 500.74022715 -365.758798 500.74022715 -371.3125 496.25 C-376.34609708 491.31112115 -378.60197867 486.4099211 -378.8125 479.375 C-378.70805251 469.51515687 -375.71884707 460.24305082 -373.03857422 450.82275391 C-369.51083986 439.25802494 -369.51083986 439.25802494 -372 427.875 C-375.28716899 424.14361898 -377.55395769 422.52584977 -382.5 421.75 C-391.89029979 422.98151473 -398.47712033 428.82995796 -405.55688477 434.65087891 C-414.74777894 442.15246656 -424.40027971 449.82077655 -436.8125 449.1875 C-442.60658541 448.30839739 -447.24151806 445.88626237 -450.88671875 441.24609375 C-457.10625317 431.56928231 -456.72272725 419.60904419 -454.84814453 408.49755859 C-447.06668316 373.49057338 -424.35959749 336.28139833 -394.3125 316.25 C-395.79510493 312.78538638 -397.78205207 310.6461955 -400.4375 308 C-412.44859588 294.88465821 -417.29466322 277.74788497 -417.3125 260.25 C-416.22597601 241.97664194 -408.08096728 228.46845124 -397.3125 214.25 C-397.72089111 213.5794458 -398.12928223 212.9088916 -398.55004883 212.21801758 C-400.4085341 209.16628079 -402.26676947 206.11439191 -404.125 203.0625 C-404.76759766 202.00740234 -405.41019531 200.95230469 -406.07226562 199.86523438 C-407.00522461 198.33286133 -407.00522461 198.33286133 -407.95703125 196.76953125 C-408.52784424 195.83214111 -409.09865723 194.89475098 -409.68676758 193.92895508 C-410.22325928 193.0448999 -410.75975098 192.16084473 -411.3125 191.25 C-411.87928467 190.38592529 -412.44606934 189.52185059 -413.0300293 188.6315918 C-414.88455259 185.18767885 -414.27414301 182.95919449 -413.3125 179.25 C-412.25 177.3125 -412.25 177.3125 -410.3125 176.25 C-404.84614269 175.54466357 -404.84614269 175.54466357 -402.3125 176.25 C-396.71989847 180.60824126 -393.56554705 187.0513769 -390 193.0625 C-389.35482422 194.13693359 -388.70964844 195.21136719 -388.04492188 196.31835938 C-386.4608911 198.95841066 -384.88369067 201.602294 -383.3125 204.25 C-378.3625 202.27 -378.3625 202.27 -373.3125 200.25 C-373.44527344 199.00605469 -373.57804687 197.76210937 -373.71484375 196.48046875 C-374.08048268 193.05152682 -374.43668422 189.6217336 -374.7890625 186.19140625 C-375.08209839 183.35818932 -375.4050977 180.53982274 -375.7734375 177.71484375 C-376.60989907 170.95809303 -376.60989907 170.95809303 -375 167.125 C-372.58722871 164.44414301 -371.60112673 164.2767247 -367.9375 163.9375 C-364.3125 164.25 -364.3125 164.25 -362.16503906 165.94433594 C-360.06815627 168.55410941 -359.58064973 170.17422307 -359.046875 173.453125 C-358.87929688 174.4328125 -358.71171875 175.4125 -358.5390625 176.421875 C-358.38179688 177.43765625 -358.22453125 178.4534375 -358.0625 179.5 C-357.88976562 180.53125 -357.71703125 181.5625 -357.5390625 182.625 C-357.11578545 185.16466228 -356.7075279 187.70581712 -356.3125 190.25 C-356.07466797 188.96029297 -356.07466797 188.96029297 -355.83203125 187.64453125 C-352.01435233 168.30303088 -344.2158042 151.27715974 -327.54467773 139.87084961 C-312.09009005 129.68061882 -295.56348407 125.06969338 -277.3125 123.25 C-277.09335937 122.66734375 -276.87421875 122.0846875 -276.6484375 121.484375 C-270.183127 104.76918201 -262.51554605 91.99413675 -246.3125 83.25 C-245.48492187 82.78980469 -244.65734375 82.32960938 -243.8046875 81.85546875 C-227.2742588 73.48915086 -208.41192402 73.0610269 -190.3125 73.25 C-190.16554688 72.49976562 -190.01859375 71.74953125 -189.8671875 70.9765625 C-187.56555427 60.47370742 -183.18507449 50.77525445 -174.3125 44.25 C-155.79952835 32.52642181 -133.32631332 30.27407467 -112.125 34.9375 C-107.87264462 35.58671456 -106.15214074 35.81530268 -102.55078125 33.390625 C-100.71527029 31.49200978 -99.00981002 29.6122936 -97.3125 27.6015625 C-93.96563358 23.67454174 -90.04818161 20.65389943 -85.9375 17.5625 C-84.83994385 16.73661377 -84.83994385 16.73661377 -83.72021484 15.89404297 C-61.19316025 -0.80471832 -26.69507181 -18.50453841 0 0 Z " fill="#020100" transform="translate(465.3125,6.75)"/>
<path d="M0 0 C1.78581464 0.56194553 3.57234299 1.1216254 5.359375 1.6796875 C42.65579067 13.50314595 78.77729647 31.24943352 107.734375 57.91796875 C109.80892036 59.8244044 111.92265931 61.6676561 114.0625 63.5 C121.3124285 69.84732696 127.75173663 76.67345857 133.7578125 84.20703125 C135.19891793 86.00213645 136.67090771 87.77310692 138.1796875 89.51171875 C152.63272684 106.30501891 166.65940921 129.1691507 166.5 151.875 C166.49355469 152.83881592 166.48710937 153.80263184 166.48046875 154.7956543 C166.16065111 167.27380232 161.8452535 175.30838614 153 184 C148.79081561 182.59693854 147.69908886 179.58676322 145.5625 175.9375 C130.98593032 151.88859577 111.4216875 129.1862975 90 111 C88.58267578 109.75089844 88.58267578 109.75089844 87.13671875 108.4765625 C55.24581968 80.57898503 16.85457743 60.82564207 -22.5625 45.875 C-23.33013672 45.57924072 -24.09777344 45.28348145 -24.88867188 44.97875977 C-29.05842102 43.448761 -32.48828791 42.57128528 -37 43 C-39.01951062 43.93597315 -39.01951062 43.93597315 -40 46 C-40.75011367 49.45728358 -40.75011367 49.45728358 -40 53 C-35.62510134 56.52836254 -31.04735449 58.22886769 -25.8125 60 C8.79354845 72.30017464 41.38543035 89.96716355 70 113 C70.56396484 113.44682129 71.12792969 113.89364258 71.70898438 114.35400391 C80.46228025 121.3307714 88.38347444 129.17997987 96.3125 137.0625 C96.82483185 137.56947418 97.3371637 138.07644836 97.86502075 138.5987854 C104.71329709 145.3926831 111.02295638 152.41106584 117 160 C117.90466101 161.11872165 118.80955517 162.23725487 119.71484375 163.35546875 C139.04575132 187.9862385 154.40647553 215.93972977 152 248 C149.73256944 263.78843878 139.25914379 275.76080085 127.0625 285.25 C124 287 124 287 122.03515625 286.91796875 C119.12340567 285.60460717 118.12329577 283.71470187 116.375 281.0625 C105.93407552 266.21831271 92.50810501 258.00092784 76 251 C75.08605469 250.58492188 74.17210937 250.16984375 73.23046875 249.7421875 C65.14941225 246.35831904 56.63935977 245.33277783 48.1328125 247.84765625 C42.00169611 250.59640904 37.99233217 254.67248389 34 260 C30.65475051 258.88491684 30.15778307 258.18708058 28.0625 255.5 C20.98686823 247.20087357 11.2927653 241.46677142 2.34155273 235.36352539 C-5.11437908 230.26985164 -12.4141238 224.96585453 -19.71777344 219.65722656 C-23.47294073 216.930432 -27.23677298 214.21565479 -31 211.5 C-35.69111148 208.11433123 -40.37987928 204.72553101 -45.0625 201.328125 C-45.88878906 200.72935547 -46.71507812 200.13058594 -47.56640625 199.51367188 C-49.15841453 198.35991307 -50.74959487 197.20501074 -52.33984375 196.04882812 C-53.05269531 195.53255859 -53.76554688 195.01628906 -54.5 194.484375 C-55.1290625 194.02772461 -55.758125 193.57107422 -56.40625 193.10058594 C-59.69229852 190.83136003 -62.01994036 190.67509717 -66 191 C-68.01951062 191.93597315 -68.01951062 191.93597315 -69 194 C-70.08724618 197.28085912 -70.08724618 197.28085912 -69 201 C-66.05039912 204.18055397 -62.54875759 206.52917753 -59 209 C-57.83193012 209.83789104 -56.6653128 210.67780997 -55.5 211.51953125 C-53.10690108 213.24324769 -50.70575813 214.9546687 -48.296875 216.65625 C-44.47359744 219.36276264 -40.72939934 222.1656565 -37 225 C-39.1682057 227.1682057 -40.90623172 227.93954961 -43.6875 229.1875 C-51.99711402 233.28834848 -56.31969332 238.60890077 -60 247 C-61.03125 246.195625 -62.0625 245.39125 -63.125 244.5625 C-73.4608764 236.84698663 -84.29329518 230.39734411 -96 225 C-96.82242188 224.61585938 -97.64484375 224.23171875 -98.4921875 223.8359375 C-106.99363857 221.00212048 -116.27727807 222.59899425 -124.22265625 226.2890625 C-128.86982428 229.15187487 -132.45243344 232.88804785 -136 237 C-139.16818321 234.69586676 -141.66256306 232.26426016 -144.125 229.25 C-155.33189519 216.25964192 -174.03175325 207.10882698 -191 205 C-194.93789337 204.75733082 -198.86769909 204.66727417 -202.8125 204.625 C-203.92238281 204.61154541 -205.03226563 204.59809082 -206.17578125 204.58422852 C-213.17694066 204.62828963 -218.9509946 205.51502861 -225.5 207.9375 C-232.07220815 210.29478777 -232.07220815 210.29478777 -235.75390625 209.125 C-238.26218044 207.29154069 -240.04272301 205.41079239 -242 203 C-242.71671875 202.19820312 -243.4334375 201.39640625 -244.171875 200.5703125 C-248.28234113 195.75476641 -251.64903156 190.88309978 -254 185 C-254.44666016 183.96746094 -254.44666016 183.96746094 -254.90234375 182.9140625 C-258.94034775 172.00959087 -258.48471646 158.41663732 -254.265625 147.67578125 C-247.07164298 132.46628222 -237.49725317 123.32725737 -221.859375 116.9453125 C-209.7033903 112.92653067 -196.5425599 114.20577209 -184.9921875 119.3359375 C-177.04993035 123.33633729 -170.18685471 128.42276884 -163.1640625 133.828125 C-159.06225624 136.97920701 -154.86310495 139.97332444 -150.625 142.9375 C-142.45371291 148.66536153 -134.35978362 154.49505073 -126.27929688 160.35009766 C-123.98501548 162.01084677 -121.68825963 163.6681125 -119.390625 165.32421875 C-118.63233398 165.87126465 -117.87404297 166.41831055 -117.09277344 166.98193359 C-115.58438722 168.06881146 -114.07464084 169.1538044 -112.56347656 170.23681641 C-108.92135693 172.85423938 -105.32080737 175.5067964 -101.78125 178.26171875 C-101.1111792 178.77589355 -100.4411084 179.29006836 -99.75073242 179.81982422 C-98.50041276 180.78272312 -97.2600661 181.75878112 -96.0324707 182.75048828 C-91.9273709 185.88957824 -89.11722653 186.57553159 -84 186 C-81.91666667 185.08333333 -81.91666667 185.08333333 -81 183 C-79.91275382 179.71914088 -79.91275382 179.71914088 -81 176 C-83.91083737 172.78421777 -87.4503937 170.46488713 -91 168 C-92.27309839 167.09510328 -93.54517873 166.1887731 -94.81640625 165.28125 C-97.68274422 163.24263189 -100.55892966 161.21885167 -103.44140625 159.203125 C-107.97008215 156.03062493 -112.45871549 152.80493303 -116.9375 149.5625 C-117.68322266 149.02278564 -118.42894531 148.48307129 -119.19726562 147.92700195 C-120.70965265 146.83195428 -122.22185957 145.73665781 -123.73388672 144.64111328 C-128.23233692 141.38334747 -132.73590303 138.13264602 -137.2409668 134.8840332 C-141.04904327 132.13686388 -144.85044868 129.3812 -148.640625 126.609375 C-163.64517609 115.65321867 -177.69726789 105.68209426 -196 101 C-196.92383017 86.5266607 -192.34037328 74.33907733 -183.37890625 62.9375 C-172.88609107 51.6646434 -157.81859438 45.71589359 -143 43 C-141.90558594 42.79375 -140.81117188 42.5875 -139.68359375 42.375 C-117.81568009 38.85658708 -96.54069137 41.55575232 -74.95361328 45.56591797 C-73.98536621 45.74525879 -73.01711914 45.92459961 -72.01953125 46.109375 C-71.16077393 46.27147461 -70.3020166 46.43357422 -69.41723633 46.60058594 C-65.77206037 47.20289963 -62.6898123 47.39533703 -59 47 C-56.50882177 44.89806836 -56.09316026 43.63659511 -55.625 40.4375 C-56.08981925 37.41617485 -56.59347232 36.85155293 -59 35 C-76.82637574 28.93903225 -96.37344932 27.57537991 -115 26 C-113.94295502 17.0999423 -108.98773619 10.28828818 -102.1875 4.625 C-74.38443065 -15.91231256 -30.9228717 -10.4611417 0 0 Z " fill="#FEC164" transform="translate(321,104)"/>
<path d="M0 0 C1.78581464 0.56194553 3.57234299 1.1216254 5.359375 1.6796875 C42.65579067 13.50314595 78.77729647 31.24943352 107.734375 57.91796875 C109.80892036 59.8244044 111.92265931 61.6676561 114.0625 63.5 C121.3124285 69.84732696 127.75173663 76.67345857 133.7578125 84.20703125 C135.19891793 86.00213645 136.67090771 87.77310692 138.1796875 89.51171875 C152.63272684 106.30501891 166.65940921 129.1691507 166.5 151.875 C166.49355469 152.83881592 166.48710937 153.80263184 166.48046875 154.7956543 C166.16065111 167.27380232 161.8452535 175.30838614 153 184 C148.79081561 182.59693854 147.69908886 179.58676322 145.5625 175.9375 C130.98593032 151.88859577 111.4216875 129.1862975 90 111 C88.58267578 109.75089844 88.58267578 109.75089844 87.13671875 108.4765625 C55.24581968 80.57898503 16.85457743 60.82564207 -22.5625 45.875 C-23.33013672 45.57924072 -24.09777344 45.28348145 -24.88867188 44.97875977 C-29.05468971 43.45013013 -32.49210608 42.55738202 -37 43 C-39.53785617 44.66273336 -39.9318384 45.73355011 -40.6875 48.6875 C-40.790625 49.450625 -40.89375 50.21375 -41 51 C-41.495 49.02 -41.495 49.02 -42 47 C-46.62 46.01 -51.24 45.02 -56 44 C-56 42.02 -56 40.04 -56 38 C-57.63020514 35.31495624 -59.13056386 34.95560829 -62.125 33.9375 C-79.60168968 29.70926863 -97.09702537 27.51418193 -115 26 C-113.94295502 17.0999423 -108.98773619 10.28828818 -102.1875 4.625 C-74.38443065 -15.91231256 -30.9228717 -10.4611417 0 0 Z " fill="#FDC164" transform="translate(321,104)"/>
<path d="M0 0 C14.17302711 9.39150662 24.62108438 21.98119441 29.18725586 38.57543945 C30.06089666 43.30131209 29.90882864 48.10881314 29.89453125 52.8984375 C29.91064453 53.95869141 29.92675781 55.01894531 29.94335938 56.11132812 C29.94799297 63.71505704 28.77680506 70.44177814 26.58203125 77.7109375 C26.36828857 78.42048584 26.1545459 79.13003418 25.93432617 79.86108398 C20.77956162 95.9232722 12.2595639 110.70691806 1.58203125 123.7109375 C1.13102051 124.2673291 0.68000977 124.8237207 0.21533203 125.39697266 C-10.67338419 138.77095631 -26.67894064 158.18621045 -45.04296875 160.0859375 C-48.41796875 159.7109375 -48.41796875 159.7109375 -50.13671875 157.97387695 C-53.09308602 152.75235099 -50.55486266 145.86029744 -49.04296875 140.38671875 C-48.51015283 138.59630056 -47.96842094 136.80851242 -47.41796875 135.0234375 C-43.54087674 122.28572721 -40.11980496 107.47802382 -46.09375 94.859375 C-48.3748772 91.15843116 -51.00142336 88.3832147 -54.41796875 85.7109375 C-54.95679687 85.27652344 -55.495625 84.84210938 -56.05078125 84.39453125 C-62.70906699 80.1099393 -71.83162201 80.60925379 -79.41796875 81.7109375 C-91.04446049 85.08134558 -100.94945868 94.69314869 -110.37890625 102.0078125 C-115.50119148 105.82194489 -118.97529741 107.59162877 -125.41796875 107.7109375 C-129.91586616 101.0893644 -129.07999198 94.78017365 -127.83203125 87.109375 C-122.84960475 64.66560056 -111.57415519 44.59630997 -97.41796875 26.7109375 C-96.28681641 25.25494141 -96.28681641 25.25494141 -95.1328125 23.76953125 C-90.64470143 18.11127802 -86.08002811 13.1883816 -80.41796875 8.7109375 C-79.5465625 7.99164063 -78.67515625 7.27234375 -77.77734375 6.53125 C-54.70403644 -11.79167051 -25.78429955 -15.23090558 0 0 Z " fill="#FE682F" transform="translate(153.41796875,332.2890625)"/>
<path d="M0 0 C4.10180626 3.15108201 8.30095755 6.14519944 12.5390625 9.109375 C20.71034959 14.83723653 28.80427888 20.66692573 36.88476562 26.52197266 C39.17904702 28.18272177 41.47580287 29.8399875 43.7734375 31.49609375 C44.53172852 32.04313965 45.29001953 32.59018555 46.07128906 33.15380859 C47.57967528 34.24068646 49.08942166 35.3256794 50.60058594 36.40869141 C54.24270557 39.02611438 57.84325513 41.6786714 61.3828125 44.43359375 C62.3879187 45.20485596 62.3879187 45.20485596 63.41333008 45.99169922 C64.66364974 46.95459812 65.9039964 47.93065612 67.1315918 48.92236328 C71.23461857 52.05986804 74.04746392 52.7851235 79.1640625 52.171875 C81.56489688 50.81302384 81.56489688 50.81302384 83.1640625 49.171875 C83.8653125 49.914375 84.5665625 50.656875 85.2890625 51.421875 C88.02898669 54.29373206 88.02898669 54.29373206 91.4765625 55.921875 C92.3634375 56.664375 93.2503125 57.406875 94.1640625 58.171875 C94.19140625 60.140625 94.19140625 60.140625 93.9140625 62.421875 C93.71736601 65.59489999 93.78396687 66.72495891 95.875 69.18359375 C98.55715747 71.32324364 101.31834584 73.2545734 104.1640625 75.171875 C105.33372353 76.0049262 106.50028471 76.8423432 107.6640625 77.68359375 C110.056316 79.41122469 112.4566775 81.12606003 114.8671875 82.828125 C118.69046506 85.53463764 122.43466316 88.3375315 126.1640625 91.171875 C123.9958568 93.3400807 122.25783078 94.11142461 119.4765625 95.359375 C111.16694848 99.46022348 106.84436918 104.78077577 103.1640625 113.171875 C102.1328125 112.3675 101.1015625 111.563125 100.0390625 110.734375 C89.7031861 103.01886163 78.87076732 96.56921911 67.1640625 91.171875 C66.34164062 90.78773438 65.51921875 90.40359375 64.671875 90.0078125 C56.17042393 87.17399548 46.88678443 88.77086925 38.94140625 92.4609375 C34.29423822 95.32374987 30.71162906 99.05992285 27.1640625 103.171875 C23.99587929 100.86774176 21.50149944 98.43613516 19.0390625 95.421875 C7.83216731 82.43151692 -10.86769075 73.28070198 -27.8359375 71.171875 C-31.77383087 70.92920582 -35.70363659 70.83914917 -39.6484375 70.796875 C-40.75832031 70.78342041 -41.86820313 70.76996582 -43.01171875 70.75610352 C-50.01287816 70.80016463 -55.7869321 71.68690361 -62.3359375 74.109375 C-68.90814565 76.46666277 -68.90814565 76.46666277 -72.58984375 75.296875 C-75.09811794 73.46341569 -76.87866051 71.58266739 -78.8359375 69.171875 C-79.55265625 68.37007813 -80.269375 67.56828125 -81.0078125 66.7421875 C-85.11827863 61.92664141 -88.48496906 57.05497478 -90.8359375 51.171875 C-91.13371094 50.48351562 -91.43148437 49.79515625 -91.73828125 49.0859375 C-95.77628525 38.18146587 -95.32065396 24.58851232 -91.1015625 13.84765625 C-83.90758048 -1.36184278 -74.33319067 -10.50086763 -58.6953125 -16.8828125 C-36.11428596 -24.34812455 -17.30511112 -13.31952964 0 0 Z " fill="#FD682F" transform="translate(157.8359375,237.828125)"/>
<path d="M0 0 C7.60603155 6.01671153 10.95074494 14.25400214 12.78125 23.59375 C13.04762309 26.33370337 13.08510435 29.04916046 13.08203125 31.80078125 C13.08740402 32.56044189 13.09277679 33.32010254 13.09831238 34.1027832 C13.10957879 36.53744757 13.10335195 38.97158448 13.09375 41.40625 C13.09358887 42.23168304 13.09342773 43.05711609 13.09326172 43.90756226 C13.07674233 56.02527409 12.50567885 67.73924112 9.78125 79.59375 C8.66574799 78.64561103 7.55138591 77.69613082 6.4375 76.74609375 C5.81681641 76.21749756 5.19613281 75.68890137 4.55664062 75.14428711 C3.08875478 73.86230925 1.67665255 72.51676749 0.28125 71.15625 C-2.24914385 69.25118791 -2.24914385 69.25118791 -5.90625 69.71875 C-9.2707499 70.31037071 -9.2707499 70.31037071 -11.21875 72.59375 C-11.80289702 75.96681618 -11.80289702 75.96681618 -11.21875 79.59375 C-9.20121784 82.19829619 -9.20121784 82.19829619 -6.21875 84.59375 C7.61601633 97.67662685 24.91768651 117.03745966 27.15234375 136.890625 C27.34467552 146.89187709 25.4569137 153.7886863 18.71875 161.28125 C15.78125 163.59375 15.78125 163.59375 13.82421875 163.515625 C11.03878274 162.25871697 9.97473454 160.61457169 8.15625 158.15625 C-1.74511242 145.61561713 -13.56665741 134.32769866 -26.21875 124.59375 C-26.99734375 123.94792969 -27.7759375 123.30210937 -28.578125 122.63671875 C-66.1092236 91.54477922 -117.14777375 70.28120169 -165.21875 63.59375 C-164.92992811 55.651148 -162.03054122 50.500836 -156.5 44.83203125 C-143.07747662 33.54232408 -123.8321086 35.60103323 -107.48681641 36.79296875 C-83.34604989 39.12439445 -58.79373022 48.94316604 -38.17871094 61.44458008 C-34.05060718 63.88265157 -31.16779679 65.3196102 -26.21875 64.59375 C-23.73893248 63.03070474 -23.73893248 63.03070474 -22.21875 60.59375 C-21.8329277 57.43000717 -22.20446172 55.63661484 -23.21875 52.59375 C-25.53075977 51.50281244 -25.53075977 51.50281244 -28.21875 50.59375 C-29.83628252 49.77068631 -31.44143169 48.92295435 -33.03515625 48.0546875 C-47.55780443 40.24634705 -62.22977615 32.88866053 -78.21875 28.59375 C-74.29625093 16.82625279 -52.74773894 6.78011735 -41.9140625 1.32421875 C-28.93387758 -4.91560438 -12.92402983 -8.19128651 0 0 Z " fill="#FDC064" transform="translate(456.21875,19.40625)"/>
<path d="M0 0 C38.56429611 3.47261434 70.10272865 32.37866848 101 54 C102.75774326 55.22796371 104.51555478 56.45582971 106.2734375 57.68359375 C111.18628537 61.1167131 116.09447786 64.55642264 121 68 C121.73412109 68.5151416 122.46824219 69.0302832 123.22460938 69.56103516 C132.78073122 76.27143181 142.27235013 83.06631893 151.73046875 89.9140625 C155.47615413 92.62470099 159.23437834 95.31715195 163 98 C170.58674197 103.40777063 178.13590337 108.86727269 185.68554688 114.32666016 C187.96175624 115.97234992 190.23855354 117.61722209 192.515625 119.26171875 C193.25675537 119.79700195 193.99788574 120.33228516 194.76147461 120.88378906 C196.24897533 121.95776166 197.7367665 123.0313321 199.22485352 124.10449219 C203.11997393 126.91453421 207.00816602 129.73353043 210.88671875 132.56640625 C211.69044922 133.15164063 212.49417969 133.736875 213.32226562 134.33984375 C214.85041969 135.45283457 216.37660637 136.56853398 217.90039062 137.6875 C222.13417193 140.76590158 226.40560814 143.48904141 231 146 C231.6290625 145.60167969 232.258125 145.20335937 232.90625 144.79296875 C245.00183964 137.30609022 254.79263552 134.96510862 269.125 138.125 C287.50799151 143.39121508 302.95668647 156.50804597 315 171 C315.80695313 171.95390625 316.61390625 172.9078125 317.4453125 173.890625 C319.99043652 176.90544183 322.49844687 179.94892536 325 183 C325.66257812 183.7940625 326.32515625 184.588125 327.0078125 185.40625 C327.56210937 186.0971875 328.11640625 186.788125 328.6875 187.5 C329.16574219 188.0878125 329.64398438 188.675625 330.13671875 189.28125 C331 191 331 191 330.8828125 192.99609375 C329.75449105 195.55728358 328.33630587 196.78046619 326.1875 198.5625 C325.15689453 199.43068359 325.15689453 199.43068359 324.10546875 200.31640625 C323.41066406 200.87199219 322.71585937 201.42757812 322 202 C321.33613281 202.58652344 320.67226563 203.17304688 319.98828125 203.77734375 C318 205 318 205 315.9765625 204.99609375 C313.16704255 203.58022895 312.09985442 201.67914086 310.375 199.0625 C299.93407552 184.21831271 286.50810501 176.00092784 270 169 C269.08605469 168.58492187 268.17210937 168.16984375 267.23046875 167.7421875 C259.14941225 164.35831904 250.63935977 163.33277783 242.1328125 165.84765625 C236.00169611 168.59640904 231.99233217 172.67248389 228 178 C224.65475051 176.88491684 224.15778307 176.18708058 222.0625 173.5 C214.98686823 165.20087357 205.2927653 159.46677142 196.34155273 153.36352539 C188.88562092 148.26985164 181.5858762 142.96585453 174.28222656 137.65722656 C170.52705927 134.930432 166.76322702 132.21565479 163 129.5 C158.30888852 126.11433123 153.62012072 122.72553101 148.9375 119.328125 C147.69806641 118.4299707 147.69806641 118.4299707 146.43359375 117.51367188 C144.84158547 116.35991307 143.25040513 115.20501074 141.66015625 114.04882812 C140.94730469 113.53255859 140.23445312 113.01628906 139.5 112.484375 C138.8709375 112.02772461 138.241875 111.57107422 137.59375 111.10058594 C134.28083992 108.81281041 132.0019731 108.84305988 128 109 C127.20722656 109.226875 126.41445312 109.45375 125.59765625 109.6875 C122.14392279 110.10298673 120.99320408 109.19621114 118.25 107.125 C114.15714364 103.76658769 114.15714364 103.76658769 113.55078125 100.80859375 C113.55464844 100.06738281 113.55851562 99.32617188 113.5625 98.5625 C113.48663913 95.55840936 113.32655237 94.37956911 111.33984375 92.0703125 C108.64390386 89.90095853 105.86158649 87.94670427 103 86 C101.7271567 85.09918754 100.45644331 84.19536048 99.1875 83.2890625 C96.32048252 81.24688748 93.44340753 79.22007782 90.55859375 77.203125 C86.02991785 74.03062493 81.54128451 70.80493303 77.0625 67.5625 C76.31677734 67.02278564 75.57105469 66.48307129 74.80273438 65.92700195 C73.29034735 64.83195428 71.77814043 63.73665781 70.26611328 62.64111328 C65.76766308 59.38334747 61.26409697 56.13264602 56.7590332 52.8840332 C52.95095673 50.13686388 49.14955132 47.3812 45.359375 44.609375 C30.35482391 33.65321867 16.30273211 23.68209426 -2 19 C-2.05479286 17.1461748 -2.09314594 15.2918612 -2.125 13.4375 C-2.14820312 12.40496094 -2.17140625 11.37242187 -2.1953125 10.30859375 C-1.97377289 6.55571281 -1.14353871 3.57018189 0 0 Z " fill="#FDB440" transform="translate(127,186)"/>
<path d="M0 0 C0.66 0.33 1.32 0.66 2 1 C0.515 2.485 0.515 2.485 -1 4 C-0.06039429 4.10489746 -0.06039429 4.10489746 0.89819336 4.21191406 C74.62675295 12.5310368 147.18183378 37.30969009 202.5625 88.74609375 C204.62844186 90.65642781 206.72950579 92.4932997 208.875 94.3125 C217.51383159 101.82917409 225.73432348 110.15019276 233 119 C233.43135254 119.52287598 233.86270508 120.04575195 234.30712891 120.58447266 C243.62662672 131.92034262 252.06688647 143.56037618 259.5625 156.1875 C260.22596436 157.30294189 260.22596436 157.30294189 260.90283203 158.44091797 C264 163.75087739 264 163.75087739 264 166 C264.66 166.33 265.32 166.66 266 167 C264.92646259 168.4655595 263.8407446 169.92220152 262.75 171.375 C261.84507812 172.59316406 261.84507812 172.59316406 260.921875 173.8359375 C258.99817908 176.00205039 257.58320765 176.81172448 255 178 C254.55720703 177.32533691 254.11441406 176.65067383 253.65820312 175.95556641 C251.61054904 172.8420029 249.55532857 169.73350225 247.5 166.625 C246.45585938 165.03365234 246.45585938 165.03365234 245.390625 163.41015625 C240.91011792 156.64790946 236.17943281 150.24130126 231 144 C230.53787109 143.43216797 230.07574219 142.86433594 229.59960938 142.27929688 C218.7635523 128.98914075 207.08213879 116.10629907 194 105 C192.58267578 103.75089844 192.58267578 103.75089844 191.13671875 102.4765625 C159.24581968 74.57898503 120.85457743 54.82564207 81.4375 39.875 C80.66986328 39.57924072 79.90222656 39.28348145 79.11132812 38.97875977 C74.94531029 37.45013013 71.50789392 36.55738202 67 37 C64.46214383 38.66273336 64.0681616 39.73355011 63.3125 42.6875 C63.209375 43.450625 63.10625 44.21375 63 45 C62.505 43.02 62.505 43.02 62 41 C57.38 40.01 52.76 39.02 48 38 C48 36.02 48 34.04 48 32 C46.36979486 29.31495624 44.86943614 28.95560829 41.875 27.9375 C24.39831032 23.70926863 6.90297463 21.51418193 -11 20 C-10.48481926 15.28679244 -9.23201182 12.25601788 -6.625 8.3125 C-6.01914063 7.38050781 -5.41328125 6.44851562 -4.7890625 5.48828125 C-3.30579565 3.42530967 -1.86499728 1.71053431 0 0 Z " fill="#FCB340" transform="translate(217,110)"/>
<path d="M0 0 C1.5590594 0.82124588 3.10456796 1.66864594 4.63671875 2.5390625 C5.4570459 2.98950928 6.27737305 3.43995605 7.12255859 3.90405273 C14.43045104 8.01858643 20.98624471 12.66937632 27.32421875 18.1640625 C28.14148438 18.86917969 28.95875 19.57429688 29.80078125 20.30078125 C46.08023059 35.43339653 55.48857038 58.73394194 56.703125 80.6796875 C57.42962215 103.50525933 53.04575017 128.32554332 39.32421875 147.1640625 C36.839188 149.76890723 34.28624186 152.11231966 31.32421875 154.1640625 C30.99421875 154.1640625 30.66421875 154.1640625 30.32421875 154.1640625 C30.31487305 152.99649414 30.30552734 151.82892578 30.29589844 150.62597656 C30.25526881 146.1897507 30.18933145 141.75416682 30.11669922 137.31835938 C30.0889039 135.41805423 30.06748934 133.51764236 30.05322266 131.6171875 C29.82540489 102.94252521 23.75537226 76.86419642 5.32421875 54.1640625 C4.78796875 53.48601562 4.25171875 52.80796875 3.69921875 52.109375 C-0.84205823 46.55618304 -6.1916559 42.02302175 -11.90234375 37.7109375 C-12.47267334 37.27950439 -13.04300293 36.84807129 -13.63061523 36.40356445 C-14.75482715 35.55878185 -15.88428877 34.7209237 -17.01977539 33.89135742 C-21.35089941 30.6537187 -25.22797535 27.0596743 -27.67578125 22.1640625 C-28.20314298 15.95742058 -28.43825607 10.38297918 -24.67578125 5.1640625 C-17.55453092 -1.97402294 -9.57026312 -4.41076719 0 0 Z " fill="#FD682F" transform="translate(222.67578125,342.8359375)"/>
<path d="M0 0 C0.763125 0.721875 1.52625 1.44375 2.3125 2.1875 C2.3125 2.8475 2.3125 3.5075 2.3125 4.1875 C3.06015625 3.91035156 3.8078125 3.63320313 4.578125 3.34765625 C5.56296875 2.98542969 6.5478125 2.62320312 7.5625 2.25 C9.02429688 1.71052734 9.02429688 1.71052734 10.515625 1.16015625 C22.11940641 -2.875237 34.09247979 -1.41472386 45.3125 3.1875 C46.3025 3.8475 47.2925 4.5075 48.3125 5.1875 C51.94330337 4.8143125 54.94796533 2.88409361 58.125 1.1875 C62.66587413 -1.13573793 66.23047814 -2.58149901 71.3125 -2.8125 C71.6425 -3.8025 71.9725 -4.7925 72.3125 -5.8125 C72.52777344 -4.91789062 72.74304688 -4.02328125 72.96484375 -3.1015625 C74.61669881 0.92992143 76.37058895 2.25985015 79.875 4.8125 C80.43348633 5.22564453 80.99197266 5.63878906 81.56738281 6.06445312 C84.98116797 8.57049443 88.4536619 10.9942185 91.91796875 13.4296875 C92.68874756 13.97157715 93.45952637 14.5134668 94.25366211 15.07177734 C95.7775189 16.13817094 97.30561466 17.19853583 98.83813477 18.25244141 C99.53608154 18.73632324 100.23402832 19.22020508 100.953125 19.71875 C101.57735352 20.14736328 102.20158203 20.57597656 102.84472656 21.01757812 C104.3125 22.1875 104.3125 22.1875 105.3125 24.1875 C104.13494141 24.71537109 104.13494141 24.71537109 102.93359375 25.25390625 C92.66410639 30.07993528 86.88194598 34.76916317 82.3125 45.1875 C81.28125 44.383125 80.25 43.57875 79.1875 42.75 C68.8516236 35.03448663 58.01920482 28.58484411 46.3125 23.1875 C45.49007812 22.80335938 44.66765625 22.41921875 43.8203125 22.0234375 C35.31886143 19.18962048 26.03522193 20.78649425 18.08984375 24.4765625 C13.44267572 27.33937487 9.86006656 31.07554785 6.3125 35.1875 C3.14431679 32.88336676 0.64993694 30.45176016 -1.8125 27.4375 C-13.01939519 14.44714192 -31.71925325 5.29632698 -48.6875 3.1875 C-52.62539337 2.94483082 -56.55519909 2.85477417 -60.5 2.8125 C-61.60988281 2.79904541 -62.71976563 2.78559082 -63.86328125 2.77172852 C-70.86444066 2.81578963 -76.6384946 3.70252861 -83.1875 6.125 C-89.75970815 8.48228777 -89.75970815 8.48228777 -93.44140625 7.3125 C-95.95319528 5.47647147 -97.72959133 3.60423171 -99.6875 1.1875 C-100.43902344 0.32769531 -101.19054687 -0.53210938 -101.96484375 -1.41796875 C-107.36395631 -7.84186893 -107.36395631 -7.84186893 -108.6875 -11.8125 C-71.08456614 -21.97313007 -32.56381454 -25.74813243 0 0 Z " fill="#FC5325" transform="translate(178.6875,305.8125)"/>
<path d="M0 0 C0.69109863 0.2695752 1.38219727 0.53915039 2.09423828 0.81689453 C15.58426814 6.19132243 27.45566492 12.6676253 37.4375 23.4375 C38.35982422 24.40429688 38.35982422 24.40429688 39.30078125 25.390625 C56.58391028 44.00823292 62.57938538 68.97819486 61.82421875 93.8359375 C61.05967955 107.91600012 57.52867417 124.29348005 48.4375 135.4375 C47.12660257 136.14726767 45.7952701 136.8221281 44.4375 137.4375 C44.30287354 136.19383667 44.30287354 136.19383667 44.16552734 134.92504883 C40.35926807 100.65212521 33.61193591 69.09152136 6.4375 45.4375 C-1.10460255 39.61791636 -9.06168858 34.88230785 -17.46875 30.45703125 C-22.32822966 27.28487091 -26.02733149 23.15949174 -27.5625 17.4375 C-28.20786917 11.62917749 -27.04801835 7.97205785 -23.5625 3.4375 C-15.99357929 -3.56375165 -9.51544849 -3.79626993 0 0 Z " fill="#FD682F" transform="translate(301.5625,346.5625)"/>
<path d="M0 0 C16.11513466 2.13437879 31.55252827 4.90748526 47 10 C48.56476074 10.50611816 48.56476074 10.50611816 50.16113281 11.02246094 C87.06535779 23.09413768 121.92473368 41.02238566 151 67 C151.51933105 67.46293457 152.03866211 67.92586914 152.57373047 68.40283203 C164.56928946 79.14429299 176.43578573 90.22278575 185 104 C182.38807557 108.1597315 179.83102953 111.83940064 176 115 C173.17531952 114.86276856 172.19580145 114.21219207 170.2734375 112.12890625 C169.64695312 111.28199219 169.02046875 110.43507813 168.375 109.5625 C158.47363758 97.02186713 146.65209259 85.73394866 134 76 C133.22140625 75.35417969 132.4428125 74.70835937 131.640625 74.04296875 C94.1095264 42.95102922 43.07097625 21.68745169 -5 15 C-4.5636344 8.78179024 -3.22771131 5.32572366 0 0 Z " fill="#FCB340" transform="translate(296,68)"/>
<path d="M0 0 C3.25953509 0.83740359 6.24689552 2.05921088 9.3125 3.4375 C10.54190308 3.97503906 10.54190308 3.97503906 11.79614258 4.5234375 C30.77441199 13.11765136 43.86452231 26.77324823 52 46 C59.69966174 67.23240055 59.7248342 91.27567196 50.66015625 112.07421875 C47.72428097 117.75857301 47.72428097 117.75857301 44 119 C43.94054199 118.38294189 43.88108398 117.76588379 43.81982422 117.13012695 C41.00929857 89.12580095 34.77743688 60.01602528 12 41 C5.58269812 36.05812229 -0.849654 31.4686662 -8.0625 27.75 C-12.66838305 25.29760504 -15.46255535 23.63739884 -18 19 C-18.79566567 14.52688797 -19.12019584 10.15094638 -16.97265625 6.02734375 C-11.969691 -0.16173485 -7.47307697 -0.77661653 0 0 Z " fill="#FC682F" transform="translate(384,365)"/>
<path d="M0 0 C5.20434108 0.46951489 9.92440929 1.79235573 14.8125 3.5625 C15.54533203 3.82643555 16.27816406 4.09037109 17.03320312 4.36230469 C37.14681074 11.75324377 55.40494366 21.38060893 72 35 C72.55896973 35.40524902 73.11793945 35.81049805 73.69384766 36.22802734 C77.88770166 39.37433782 77.88770166 39.37433782 78.4375 42.4375 C78.293125 43.283125 78.14875 44.12875 78 45 C77.85691406 45.94488281 77.71382813 46.88976562 77.56640625 47.86328125 C77.37949219 48.89839844 77.19257813 49.93351562 77 51 C76.64441985 53.39562396 76.29024356 55.79145673 75.9375 58.1875 C75.62840532 60.12554618 75.31714584 62.06325505 75 64 C74.55269531 63.61328125 74.10539062 63.2265625 73.64453125 62.828125 C72.38979035 61.7472821 71.12904703 60.67337936 69.86328125 59.60546875 C68.36115903 58.31118734 66.91969224 56.94669993 65.5 55.5625 C62.01368304 53.3835519 59.92408852 54.14383523 56 55 C51.39503026 55 50.35888432 54.15917792 46.75 51.5 C45.85796875 50.8503125 44.9659375 50.200625 44.046875 49.53125 C43.37140625 49.0259375 42.6959375 48.520625 42 48 C42.29296875 46.01432292 42.5859375 44.02864583 42.87890625 42.04296875 C43.13904799 39.7974658 43.13904799 39.7974658 42 37 C39.68799023 35.90906244 39.68799023 35.90906244 37 35 C35.38246748 34.17693631 33.77731831 33.32920435 32.18359375 32.4609375 C17.66094557 24.65259705 2.98897385 17.29491053 -13 13 C-11.69435407 9.0830622 -9.71750027 7.92080562 -6.5 5.375 C-5.4996875 4.57835937 -4.499375 3.78171875 -3.46875 2.9609375 C-2.6540625 2.31382813 -1.839375 1.66671875 -1 1 C-0.67 0.67 -0.34 0.34 0 0 Z " fill="#FCB340" transform="translate(391,35)"/>
<path d="M0 0 C5.09620539 3.01237564 8.70841667 7.93775001 10.5625 13.5 C10.63220052 15.89490986 10.64698003 18.29167691 10.625 20.6875 C10.61597656 21.95980469 10.60695313 23.23210937 10.59765625 24.54296875 C10.58605469 25.51878906 10.57445313 26.49460937 10.5625 27.5 C9.95921875 27.09007812 9.3559375 26.68015625 8.734375 26.2578125 C7.93515625 25.71898437 7.1359375 25.18015625 6.3125 24.625 C5.12914063 23.82449219 5.12914063 23.82449219 3.921875 23.0078125 C2.75398438 22.26144531 2.75398438 22.26144531 1.5625 21.5 C0.67304688 20.92378906 0.67304688 20.92378906 -0.234375 20.3359375 C-6.83211102 17.83254121 -15.96066383 18.50541414 -22.66015625 20.421875 C-32.81016497 25.16878417 -41.58883472 32.96304065 -50.3984375 39.796875 C-55.52072273 43.61100739 -58.99482866 45.38069127 -65.4375 45.5 C-68.09298698 41.69147262 -68.80656112 39.18802439 -68.6875 34.5625 C-68.64882812 32.99435547 -68.64882812 32.99435547 -68.609375 31.39453125 C-68.42992858 28.37249036 -68.09470162 25.45740727 -67.4375 22.5 C-67.1075 23.49 -66.7775 24.48 -66.4375 25.5 C-55.13085333 25.12929027 -47.6004713 19.59770504 -39.125 12.625 C-27.70434685 3.28992044 -15.4473032 -6.44858957 0 0 Z " fill="#FC5325" transform="translate(93.4375,394.5)"/>
<path d="M0 0 C0.33 0 0.66 0 1 0 C0.4475299 6.01578548 -0.82829188 11.22300913 -2.9375 16.875 C-3.39503662 18.10295288 -3.39503662 18.10295288 -3.86181641 19.35571289 C-9.18111948 33.09658719 -16.65520573 45.61910421 -26 57 C-26.45101074 57.5563916 -26.90202148 58.1127832 -27.36669922 58.68603516 C-38.25541544 72.06001881 -54.26097189 91.47527295 -72.625 93.375 C-76 93 -76 93 -77.72265625 91.27734375 C-79.25543823 88.54458567 -79.22408521 87.26228361 -78.8125 84.1875 C-78.69648437 83.31738281 -78.58046875 82.44726562 -78.4609375 81.55078125 C-77.86688052 78.26333035 -77.03541907 75.17528513 -76 72 C-75.071875 72.0825 -74.14375 72.165 -73.1875 72.25 C-57.4596504 72.12367189 -44.60386329 59.24133805 -34 49 C-33.28070313 48.33226562 -32.56140625 47.66453125 -31.8203125 46.9765625 C-18.16486674 33.97921051 -7.91086034 16.97940755 0 0 Z " fill="#FA5225" transform="translate(181,399)"/>
<path d="M0 0 C4.37391131 2.18695566 5.66826262 9.25837681 7.25390625 13.74511719 C15.00464612 37.1698009 14.44804026 62.99316492 4.22265625 85.5703125 C1.81915669 90.34659598 0.02986582 93.72035187 -5 96 C-5.5984604 91.67804028 -6.18609516 87.3547851 -6.76391602 83.0300293 C-6.96182041 81.56022913 -7.16263316 80.09081743 -7.36645508 78.62182617 C-7.6595925 76.50535965 -7.94210403 74.38769819 -8.22265625 72.26953125 C-8.39547119 70.99698486 -8.56828613 69.72443848 -8.74633789 68.41333008 C-9.08619654 63.84012144 -8.18828352 60.26187395 -6.66015625 55.99609375 C-6.40169922 55.25423828 -6.14324219 54.51238281 -5.87695312 53.74804688 C-5.34298632 52.23322019 -4.80409209 50.72011942 -4.25976562 49.20898438 C-0.2604565 37.64770613 0.28017754 26.40655003 0.125 14.25 C0.11493717 12.85938154 0.10581723 11.46875592 0.09765625 10.078125 C0.07432595 6.71856181 0.0415923 3.35937825 0 0 Z " fill="#FA5225" transform="translate(351,388)"/>
<path d="M0 0 C7.05369757 10.58054635 3.61860185 31.06556558 1.375 42.9375 C-1.97961745 59.29850959 -7.66968377 78.07363461 -22 88 C-22.33 88 -22.66 88 -23 88 C-23.17420329 83.30455126 -23.3005956 78.61101721 -23.38452148 73.91308594 C-23.41953336 72.31835128 -23.46716172 70.72383823 -23.52807617 69.12988281 C-24.08505098 54.17113076 -24.08505098 54.17113076 -19.73046875 49.34765625 C-18.49116639 48.22712233 -17.24798253 47.11085832 -16 46 C-6.42215414 32.49225189 -2.59459468 16.05273621 0 0 Z " fill="#FB5225" transform="translate(276,409)"/>
<path d="M0 0 C4.21789598 1.95272962 7.14809688 4.48820949 9.3046875 8.68359375 C11.28851214 15.29262753 11.20624371 23.28444161 8.375 29.625 C6.1596598 33.20954351 3.90638887 35.26382717 0 37 C-4.30811527 37.81177709 -8.12151931 37.96026812 -12.09375 35.9296875 C-17.37368412 31.8355013 -19.48260618 27.06154146 -20.3125 20.546875 C-20.69490593 12.75535419 -18.4449335 7.79420971 -13.375 2 C-8.799001 -0.71170311 -5.19562053 -0.8969638 0 0 Z " fill="#030100" transform="translate(121,246)"/>
<path d="M0 0 C4.35412287 2.17706143 5.84231155 10.43089451 7.34863281 14.93115234 C13.49381819 34.44925612 11.77007111 58.37204317 2.375 76.5625 C0.66635861 79.50388601 0.37772976 79.87409008 -3 81 C-3.08040527 80.3201001 -3.16081055 79.6402002 -3.24365234 78.93969727 C-3.61607892 75.81338598 -3.99549297 72.68795937 -4.375 69.5625 C-4.50132812 68.49322266 -4.62765625 67.42394531 -4.7578125 66.32226562 C-5.44081472 60.73872244 -6.24960708 55.36039873 -7.78442383 49.94213867 C-8.14519622 46.69191857 -6.6163697 44.33823426 -5.15625 41.51171875 C0.74557583 28.69119845 0.15388709 13.78144358 0 0 Z " fill="#F95225" transform="translate(431,403)"/>
</svg>
